# File created by Blade
# Date/Time:  Tue Jan 27 19:23:26 2015
#---------------------------------------------------------
:version 1.10
:name HOM
:units
  mass 1.0
  length 1.000000
  angle deg
:documentation
     Acclaim Skeleton File
:root
   axis xyz
   order TX TY TZ RX RY RZ
   position 0.000000 0.000000 0.000000
   orientation 0 0 0
:bonedata
   begin
      id 1
      name Spine_dum
      direction 0.000000 1.000000 0.000000
      length 6.116652
      axis 0.0 0.0 0.0 xyz
   end
   begin
      id 2
      name LeftUpLeg_dum
      direction 1.000000 0.000000 0.000000
      length 4.711765
      axis 0.0 0.0 0.0 xyz
   end
   begin
      id 3
      name RightUpLeg_dum
      direction -1.000000 0.000000 0.000000
      length 4.711765
      axis 0.0 0.0 0.0 xyz
   end
   begin
      id 4
      name Spine
      direction 0.000000 1.000000 0.000000
      length 0.000000
      axis 0.0 0.0 0.0 xyz
      dof rx ry rz
   end
   begin
      id 5
      name Spine_dum1
      direction 0.000000 1.000000 0.000000
      length 15.225563
      axis 0.0 0.0 0.0 xyz
   end
   begin
      id 6
      name Spine_dum2
      direction 0.000000 1.000000 0.000000
      length 8.977654
      axis 0.0 0.0 0.0 xyz
   end
   begin
      id 7
      name Spine_dum3
      direction 0.000000 1.000000 0.000000
      length 8.977654
      axis 0.0 0.0 0.0 xyz
   end
   begin
      id 8
      name Head
      direction 0.000000 1.000000 0.000000
      length 4.527550
      axis 0.0 0.0 0.0 xyz
      dof rx ry rz
   end
   begin
      id 9
      name LeftShoulder
      direction 1.000000 0.000000 0.000000
      length 7.110130
      axis 0.0 0.0 -90.0 xyz
      dof rx ry rz
   end
   begin
      id 10
      name LeftArm
      direction 1.000000 0.000000 0.000000
      length 10.398341
      axis 0.0 0.0 -90.0 xyz
      dof rx ry rz
   end
   begin
      id 11
      name LeftForeArm
      direction 1.000000 0.000000 0.000000
      length 8.888997
      axis 0.0 0.0 -90.0 xyz
      dof ry rz rx
   end
   begin
      id 12
      name LeftHand
      direction 0.000000 0.000000 0.000000
      length 0.000000
      axis 0.0 0.0 -90.0 xyz
      dof rx ry rz
   end
   begin
      id 13
      name LeftHand_dum1
      direction 0.000000 0.000000 0.000000
      length 0.000000
      axis 0.0 0.0 -90.0 xyz
   end
   begin
      id 14
      name LeftHand_dum2
      direction 1.000000 0.000000 0.000000
      length 3.937000
      axis 0.0 0.0 -90.0 xyz
   end
   begin
      id 15
      name LeftHandThumb1
      direction 0.000000 0.000000 1.000000
      length 3.937000
      axis 0.0 0.0 -90.0 xyz
      dof rx rz ry
   end
   begin
      id 16
      name RightShoulder
      direction -1.000000 0.000000 0.000000
      length 7.110130
      axis 0.0 0.0 90.0 xyz
      dof rx ry rz
   end
   begin
      id 17
      name RightArm
      direction -1.000000 0.000000 0.000000
      length 10.398341
      axis 0.0 0.0 90.0 xyz
      dof rx ry rz
   end
   begin
      id 18
      name RightForeArm
      direction -1.000000 0.000000 0.000000
      length 8.888997
      axis 0.0 0.0 90.0 xyz
      dof ry rz rx
   end
   begin
      id 19
      name RightHand
      direction 0.000000 0.000000 0.000000
      length 0.000000
      axis 0.0 0.0 90.0 xyz
      dof rx ry rz
   end
   begin
      id 20
      name RightHand_dum1
      direction 0.000000 0.000000 0.000000
      length 0.000000
      axis 0.0 0.0 90.0 xyz
   end
   begin
      id 21
      name RightHand_dum2
      direction -1.000000 0.000000 0.000000
      length 3.937000
      axis 0.0 0.0 90.0 xyz
   end
   begin
      id 22
      name RightHandThumb1
      direction 0.000000 0.000000 1.000000
      length 3.937000
      axis 0.0 0.0 90.0 xyz
      dof rx rz ry
   end
   begin
      id 23
      name LeftUpLeg
      direction 0.000000 -1.000000 0.000000
      length 15.510451
      axis 0.0 0.0 0.0 xyz
      dof rx ry rz
   end
   begin
      id 24
      name LeftLeg
      direction 0.000000 -1.000000 0.000000
      length 14.858061
      axis 0.0 0.0 0.0 xyz
      dof rx ry rz
   end
   begin
      id 25
      name LeftFoot
      direction 0.000000 -0.258819 0.965926
      length 5.128852
      axis 15.0 0.0 0.0 xyz
      dof rx ry rz
   end
   begin
      id 26
      name LeftToeBase
      direction 0.000000 0.000000 1.000000
      length 2.952750
      axis 0.0 0.0 0.0 xyz
      dof rx ry rz
   end
   begin
      id 27
      name RightUpLeg
      direction 0.000000 -1.000000 0.000000
      length 15.510451
      axis 0.0 0.0 0.0 xyz
      dof rx ry rz
   end
   begin
      id 28
      name RightLeg
      direction 0.000000 -1.000000 0.000000
      length 14.858061
      axis 0.0 0.0 0.0 xyz
      dof rx ry rz
   end
   begin
      id 29
      name RightFoot
      direction 0.000000 -0.258819 0.965926
      length 5.128852
      axis 15.0 0.0 0.0 xyz
      dof rx ry rz
   end
   begin
      id 30
      name RightToeBase
      direction 0.000000 0.000000 1.000000
      length 2.952750
      axis 0.0 0.0 0.0 xyz
      dof rx ry rz
   end
:hierarchy
   begin
      root Spine_dum LeftUpLeg_dum RightUpLeg_dum
      Spine_dum Spine
      LeftUpLeg_dum LeftUpLeg
      RightUpLeg_dum RightUpLeg
      Spine Spine_dum1 Spine_dum2 Spine_dum3
      Spine_dum1 Head
      Spine_dum2 LeftShoulder
      Spine_dum3 RightShoulder
      LeftShoulder LeftArm
      LeftArm LeftForeArm
      LeftForeArm LeftHand
      LeftHand LeftHand_dum1 LeftHand_dum2
      LeftHand_dum1 LeftHandThumb1
      RightShoulder RightArm
      RightArm RightForeArm
      RightForeArm RightHand
      RightHand RightHand_dum1 RightHand_dum2
      RightHand_dum1 RightHandThumb1
      LeftUpLeg LeftLeg
      LeftLeg LeftFoot
      LeftFoot LeftToeBase
      RightUpLeg RightLeg
      RightLeg RightFoot
      RightFoot RightToeBase
   end

# File created by Blade
# Date/Time:  Tue Jan 27 19:23:16 2015
# Frame Rate: 120.000 fps
#------------------------------------------------------
:FULLY-SPECIFIED
:DEGREES
958
root 4.653736 32.296208 0.310359 -2.652824 22.913298 2.905029
Spine -0.676471 28.061096 -2.627136
Head 3.830267 -32.199676 3.131200
LeftShoulder -2.869304 -8.977410 22.217726
LeftArm -4.008152 42.826772 -102.491806
LeftForeArm 3.308951 -0.000000 13.017895
LeftHand 10.306091 -0.000000 -7.012505
LeftHandThumb1 -26.253704 0.000000 33.147579
RightShoulder 1.946527 23.839325 -46.762500
RightArm 86.970008 -32.044230 48.246173
RightForeArm 25.604483 0.000000 93.155822
RightHand 23.570143 -0.000000 -6.418772
RightHandThumb1 -24.326973 -0.000000 -32.862282
LeftUpLeg 6.600031 -14.546494 -3.839504
LeftLeg 3.136822 -0.000000 -0.000000
LeftFoot -13.815734 8.722893 -21.511834
LeftToeBase 17.160625 -0.000000 -0.000000
RightUpLeg 13.922574 -21.347268 -3.122387
RightLeg -2.328520 -0.000000 0.000000
RightFoot -16.812640 -20.548326 19.162077
RightToeBase 9.980365 -0.000000 -0.000000
959
root 4.654810 32.296261 0.314942 -2.655082 22.906027 2.908931
Spine -0.699356 28.071778 -2.623183
Head 3.864675 -32.181874 3.108743
LeftShoulder -2.897238 -9.011803 22.216235
LeftArm -4.103302 42.709056 -102.545715
LeftForeArm 3.354892 -0.000000 12.983725
LeftHand 10.338623 -0.000000 -7.066445
LeftHandThumb1 -26.253704 0.000000 33.147579
RightShoulder 1.943884 23.875476 -46.728189
RightArm 86.841739 -31.945344 48.528068
RightForeArm 25.488984 0.000000 93.187573
RightHand 23.423121 -0.000000 -6.381344
RightHandThumb1 -24.326973 -0.000000 -32.862282
LeftUpLeg 6.612076 -14.564711 -3.848594
LeftLeg 3.139444 -0.000000 -0.000000
LeftFoot -13.817565 8.721655 -21.511510
LeftToeBase 17.596909 -0.000000 -0.000000
RightUpLeg 13.937601 -21.389441 -3.138669
RightLeg -2.329841 -0.000000 0.000000
RightFoot -16.795218 -20.513198 19.136832
RightToeBase 9.953524 -0.000000 -0.000000
960
root 4.656102 32.296424 0.318732 -2.653952 22.886151 2.912332
Spine -0.716163 28.100412 -2.614096
Head 3.859977 -32.170689 3.094419
LeftShoulder -2.929212 -9.074666 22.219761
LeftArm -4.217729 42.632430 -102.627171
LeftForeArm 3.293884 -0.000000 12.921370
LeftHand 10.300241 0.000000 -7.138358
LeftHandThumb1 -26.253704 0.000000 33.147579
RightShoulder 1.910014 24.014972 -46.700218
RightArm 86.621063 -31.918697 48.881219
RightForeArm 25.180662 -0.000000 93.205505
RightHand 23.392787 -0.000000 -6.399543
RightHandThumb1 -24.326973 -0.000000 -32.862282
LeftUpLeg 6.622161 -14.570471 -3.856492
LeftLeg 3.142762 -0.000000 -0.000000
LeftFoot -13.853245 8.761966 -21.526452
LeftToeBase 17.266384 -0.000000 -0.000000
RightUpLeg 13.948763 -21.377045 -3.143652
RightLeg -2.344385 -0.000000 0.000000
RightFoot -16.800086 -20.504463 19.155465
RightToeBase 9.958345 -0.000000 -0.000000
961
root 4.658415 32.296271 0.321751 -2.653832 22.869248 2.920375
Spine -0.723104 28.141934 -2.607364
Head 3.824481 -32.172325 3.103422
LeftShoulder -2.958726 -9.130429 22.232094
LeftArm -4.304578 42.583523 -102.707567
LeftForeArm 3.225147 -0.000000 12.837621
LeftHand 10.313319 -0.000000 -7.147249
LeftHandThumb1 -26.253704 0.000000 33.147579
RightShoulder 1.855298 23.999878 -46.690471
RightArm 86.453446 -31.769223 49.272496
RightForeArm 25.129007 -0.000000 93.253381
RightHand 23.261852 -0.000000 -6.248437
RightHandThumb1 -24.326973 -0.000000 -32.862282
LeftUpLeg 6.632857 -14.576274 -3.873571
LeftLeg 3.155593 -0.000000 -0.000000
LeftFoot -13.810412 8.761512 -21.420905
LeftToeBase 17.387238 -0.000000 -0.000000
RightUpLeg 13.959406 -21.375007 -3.157919
RightLeg -2.350578 -0.000000 0.000000
RightFoot -16.791952 -20.497985 19.134978
RightToeBase 9.959761 -0.000000 -0.000000
962
root 4.658479 32.295059 0.325600 -2.668497 22.850146 2.924714
Spine -0.721155 28.216038 -2.573405
Head 3.841947 -32.208263 3.031066
LeftShoulder -2.928721 -8.985506 22.205012
LeftArm -4.106894 42.568825 -102.577809
LeftForeArm 3.155081 -0.000000 12.749483
LeftHand 10.345953 0.000000 -7.144622
LeftHandThumb1 -26.253704 0.000000 33.147579
RightShoulder 1.815746 23.973512 -46.722592
RightArm 86.166594 -31.602215 49.759362
RightForeArm 25.278508 -0.000000 93.263943
RightHand 23.397647 0.000000 -6.168592
RightHandThumb1 -24.326973 -0.000000 -32.862282
LeftUpLeg 6.658469 -14.580862 -3.881496
LeftLeg 3.149096 -0.000000 -0.000000
LeftFoot -13.872290 8.807435 -21.506551
LeftToeBase 17.260116 -0.000000 -0.000000
RightUpLeg 13.987733 -21.395703 -3.175259
RightLeg -2.359525 -0.000000 0.000000
RightFoot -16.780395 -20.459606 19.110541
RightToeBase 9.951389 -0.000000 -0.000000
963
root 4.659772 32.295115 0.327485 -2.662797 22.826719 2.928464
Spine -0.736956 28.225916 -2.537768
Head 3.829863 -32.190771 2.960091
LeftShoulder -2.951381 -8.874513 22.183374
LeftArm -4.001079 42.517405 -102.505583
LeftForeArm 3.105203 -0.000000 12.672664
LeftHand 10.329059 -0.000000 -7.065734
LeftHandThumb1 -26.253704 0.000000 33.147579
RightShoulder 1.854448 24.016174 -46.708907
RightArm 85.791501 -31.424397 50.355892
RightForeArm 25.486326 -0.000000 93.304989
RightHand 23.428051 -0.000000 -5.973752
RightHandThumb1 -24.326973 -0.000000 -32.862282
LeftUpLeg 6.660166 -14.553671 -3.884222
LeftLeg 3.145180 -0.000000 -0.000000
LeftFoot -13.871307 8.769270 -21.543184
LeftToeBase 17.632587 -0.000000 -0.000000
RightUpLeg 13.985221 -21.370015 -3.176661
RightLeg -2.364937 -0.000000 0.000000
RightFoot -16.783711 -20.451259 19.130829
RightToeBase 9.951581 -0.000000 -0.000000
964
root 4.661011 32.295159 0.329726 -2.658621 22.815197 2.933785
Spine -0.760408 28.206924 -2.517285
Head 3.835417 -32.159655 2.918679
LeftShoulder -2.947051 -8.819918 22.186950
LeftArm -3.993867 42.416484 -102.505367
LeftForeArm 3.079127 -0.000000 12.614807
LeftHand 10.278500 -0.000000 -7.033907
LeftHandThumb1 -26.253704 0.000000 33.147579
RightShoulder 1.871774 24.008890 -46.702126
RightArm 85.422764 -31.213670 50.980755
RightForeArm 25.562240 -0.000000 93.360453
RightHand 23.207890 -0.000000 -6.503653
RightHandThumb1 -24.326973 -0.000000 -32.862282
LeftUpLeg 6.664352 -14.562212 -3.894169
LeftLeg 3.144998 -0.000000 -0.000000
LeftFoot -13.864296 8.799759 -21.506802
LeftToeBase 17.592407 -0.000000 -0.000000
RightUpLeg 13.984733 -21.404597 -3.192141
RightLeg -2.355044 -0.000000 0.000000
RightFoot -16.777197 -20.408975 19.103434
RightToeBase 9.975758 -0.000000 -0.000000
965
root 4.661309 32.294971 0.331384 -2.658497 22.802904 2.941777
Spine -0.903911 28.221363 -2.520679
Head 4.241203 -32.219376 2.744171
LeftShoulder -2.708941 -8.712121 22.185992
LeftArm -3.984851 42.098185 -102.505840
LeftForeArm 3.161824 -0.000000 12.528838
LeftHand 10.301714 0.000000 -7.011095
LeftHandThumb1 -26.253704 0.000000 33.147579
RightShoulder 2.121250 23.843203 -46.585376
RightArm 84.869906 -30.826931 51.695263
RightForeArm 25.596037 -0.000000 93.426012
RightHand 23.412802 0.000000 -6.482415
RightHandThumb1 -24.326973 -0.000000 -32.862282
LeftUpLeg 6.675306 -14.557770 -3.904048
LeftLeg 3.151378 -0.000000 -0.000000
LeftFoot -13.843971 8.838736 -21.398453
LeftToeBase 17.035557 -0.000000 -0.000000
RightUpLeg 13.994950 -21.416790 -3.205324
RightLeg -2.363104 -0.000000 0.000000
RightFoot -16.774518 -20.385555 19.094686
RightToeBase 9.945003 -0.000000 -0.000000
966
root 4.661976 32.295675 0.331049 -2.639700 22.788819 2.941688
Spine -0.935755 28.156804 -2.488838
Head 4.240544 -32.136218 2.682914
LeftShoulder -2.750726 -8.820369 22.190442
LeftArm -4.205499 41.932734 -102.651612
LeftForeArm 3.222236 -0.000000 12.467918
LeftHand 10.288441 -0.000000 -7.061086
LeftHandThumb1 -26.253704 0.000000 33.147579
RightShoulder 2.113474 23.739028 -46.636507
RightArm 84.383868 -30.512610 52.558114
RightForeArm 25.566312 -0.000000 93.513199
RightHand 23.768889 -0.000000 -5.886004
RightHandThumb1 -24.326973 -0.000000 -32.862282
LeftUpLeg 6.652495 -14.519505 -3.894121
LeftLeg 3.148763 -0.000000 -0.000000
LeftFoot -13.872341 8.807108 -21.512432
LeftToeBase 17.270870 -0.000000 -0.000000
RightUpLeg 13.967079 -21.402936 -3.198141
RightLeg -2.355206 -0.000000 0.000000
RightFoot -16.767044 -20.382809 19.085784
RightToeBase 9.978048 -0.000000 -0.000000
967
root 4.662451 32.295677 0.331482 -2.626415 22.781195 2.946335
Spine -0.940728 28.273913 -2.501083
Head 4.100637 -32.262142 2.789653
LeftShoulder -2.654025 -9.294041 22.245379
LeftArm -4.791296 41.701012 -103.072172
LeftForeArm 3.329537 0.000000 12.430053
LeftHand 10.265366 -0.000000 -7.089296
LeftHandThumb1 -26.253704 0.000000 33.147579
RightShoulder 1.870560 24.040006 -46.709992
RightArm 83.426868 -30.493662 53.679947
RightForeArm 25.334970 -0.000000 93.509484
RightHand 23.655437 -0.000000 -5.867441
RightHandThumb1 -24.326973 -0.000000 -32.862282
LeftUpLeg 6.646625 -14.500680 -3.892842
LeftLeg 3.137959 -0.000000 -0.000000
LeftFoot -13.852737 8.793069 -21.523288
LeftToeBase 17.185139 -0.000000 -0.000000
RightUpLeg 13.952507 -21.434998 -3.208324
RightLeg -2.343419 -0.000000 0.000000
RightFoot -16.751014 -20.346737 19.057217
RightToeBase 9.963258 -0.000000 -0.000000
968
root 4.662033 32.295802 0.331764 -2.613704 22.781713 2.951787
Spine -0.955835 28.340493 -2.510102
Head 4.029726 -32.352436 2.846632
LeftShoulder -2.583442 -9.437537 22.269045
LeftArm -4.964434 41.602600 -103.200780
LeftForeArm 3.388398 -0.000000 12.385655
LeftHand 10.263333 -0.000000 -7.062627
LeftHandThumb1 -26.253704 0.000000 33.147579
RightShoulder 1.666051 23.930106 -46.756224
RightArm 82.805308 -30.180920 54.713797
RightForeArm 25.257718 0.000000 93.445915
RightHand 23.747952 -0.000000 -5.589750
RightHandThumb1 -24.326973 -0.000000 -32.862282
LeftUpLeg 6.635309 -14.499261 -3.894117
LeftLeg 3.136432 -0.000000 -0.000000
LeftFoot -13.850445 8.755253 -21.556748
LeftToeBase 17.653017 -0.000000 -0.000000
RightUpLeg 13.939013 -21.437481 -3.206914
RightLeg -2.340550 -0.000000 0.000000
RightFoot -16.756515 -20.345930 19.047671
RightToeBase 9.985566 -0.000000 -0.000000
969
root 4.663101 32.297011 0.330477 -2.593968 22.792803 2.957927
Spine -0.977647 28.354741 -2.514723
Head 3.967536 -32.411293 2.886209
LeftShoulder -2.609997 -9.117839 22.252556
LeftArm -4.552631 41.680074 -102.926513
LeftForeArm 3.308786 -0.000000 12.349687
LeftHand 10.264252 0.000000 -6.997950
LeftHandThumb1 -26.253704 0.000000 33.147579
RightShoulder 1.436396 23.759840 -46.815807
RightArm 82.205059 -29.861827 55.833789
RightForeArm 25.509437 -0.000000 93.425532
RightHand 23.680564 -0.000000 -5.670994
RightHandThumb1 -24.326973 -0.000000 -32.862282
LeftUpLeg 6.614470 -14.491183 -3.897405
LeftLeg 3.138141 -0.000000 -0.000000
LeftFoot -13.825666 8.798572 -21.482662
LeftToeBase 17.226197 -0.000000 -0.000000
RightUpLeg 13.913160 -21.436522 -3.208840
RightLeg -2.320658 -0.000000 0.000000
RightFoot -16.762858 -20.346844 19.059969
RightToeBase 9.969223 -0.000000 -0.000000
970
root 4.664710 32.297434 0.329997 -2.582466 22.814571 2.965060
Spine -0.983560 28.316254 -2.506149
Head 3.895387 -32.421014 2.913920
LeftShoulder -2.637055 -9.094147 22.265708
LeftArm -4.529028 41.598727 -102.906155
LeftForeArm 3.489832 -0.000000 12.305704
LeftHand 10.284793 0.000000 -7.270985
LeftHandThumb1 -26.253704 0.000000 33.147579
RightShoulder 1.287268 23.733240 -46.851754
RightArm 81.473432 -29.501656 56.973793
RightForeArm 25.472183 0.000000 93.320847
RightHand 23.950816 -0.000000 -5.882794
RightHandThumb1 -24.326973 -0.000000 -32.862282
LeftUpLeg 6.608917 -14.505494 -3.905587
LeftLeg 3.125202 -0.000000 -0.000000
LeftFoot -13.806818 8.770247 -21.493452
LeftToeBase 17.556562 -0.000000 -0.000000
RightUpLeg 13.903102 -21.447967 -3.216632
RightLeg -2.310629 -0.000000 0.000000
RightFoot -16.788303 -20.338706 19.110353
RightToeBase 9.987852 -0.000000 -0.000000
